<?xml version="1.0" encoding="UTF-8" standalone="no"?>
<svg
   xmlns:dc="http://purl.org/dc/elements/1.1/"
   xmlns:cc="http://creativecommons.org/ns#"
   xmlns:rdf="http://www.w3.org/1999/02/22-rdf-syntax-ns#"
   xmlns:svg="http://www.w3.org/2000/svg"
   xmlns="http://www.w3.org/2000/svg"
   xmlns:sodipodi="http://sodipodi.sourceforge.net/DTD/sodipodi-0.dtd"
   xmlns:inkscape="http://www.inkscape.org/namespaces/inkscape"
   enable-background="new 0 0 66 66"
   viewBox="0 0 66 66"
   version="1.1"
   id="svg4"
   sodipodi:docname="logo.svg"
   inkscape:version="1.0 (4035a4fb49, 2020-05-01)">
  <metadata
     id="metadata10">
    <rdf:RDF>
      <cc:Work
         rdf:about="">
        <dc:format>image/svg+xml</dc:format>
        <dc:type
           rdf:resource="http://purl.org/dc/dcmitype/StillImage" />
        <dc:title></dc:title>
      </cc:Work>
    </rdf:RDF>
  </metadata>
  <defs
     id="defs8" />
  <sodipodi:namedview
     pagecolor="#ffffff"
     bordercolor="#666666"
     borderopacity="1"
     objecttolerance="10"
     gridtolerance="10"
     guidetolerance="10"
     inkscape:pageopacity="0"
     inkscape:pageshadow="2"
     inkscape:window-width="1920"
     inkscape:window-height="1017"
     id="namedview6"
     showgrid="false"
     inkscape:zoom="1.9686496"
     inkscape:cx="224.66214"
     inkscape:cy="27.061915"
     inkscape:window-x="1912"
     inkscape:window-y="-8"
     inkscape:window-maximized="1"
     inkscape:current-layer="svg4"
     inkscape:document-rotation="0" />
  <g
     style="fill:#f9f9f9"
     id="g857">
    <path
       id="path4"
       d="m 65.541975,0.17202632 c 0,0 -24.6093,-0.0576 -43.79462,19.12777668 a 21.158676,21.158676 0 0 0 -2.35706,2.842172 c -3.40128,-0.271336 -8.614211,-0.172663 -11.2727507,2.491351 -6.22153,6.221528 -8.29627998,16.592568 -8.29627998,16.592568 L 14.330855,39.153878 v 4.006992 l 8.22228,8.222284 h 4.00699 l -2.07475,14.51233 c 0,0 10.37104,-2.074756 16.59256,-8.296284 2.66128,-2.661278 2.75995,-7.871467 2.49136,-11.272751 a 20.953119,20.953119 0 0 0 2.84217,-2.357055 C 65.596785,24.784069 65.541975,0.17202632 65.541975,0.17202632 Z M 38.189175,22.043308 a 5.4815222,5.4815222 0 1 1 10.96031,-0.0028 5.4815222,5.4815222 0 0 1 -10.96031,0.0028 z"
       style="fill:#f9f9f9;fill-opacity:1;stroke-width:2.74076" />
    <path
       id="path4-6"
       d="m 22.714925,55.361377 c -0.18408,-0.04235 -0.41656,0.0461 -0.59626,0.0847 -0.33787,0.07202 -0.67576,0.142711 -1.01559,0.202338 -0.65605,0.115185 -1.31893,0.172689 -1.98216,0.227914 -2.73432,0.22808 -5.48819,0.221237 -8.228221,0.351403 l -3.2e-4,-3.25e-4 c 0.13019,-2.740025 0.12342,-5.493736 0.35139,-8.228224 0.0552,-0.663217 0.112901,-1.325944 0.228091,-1.981993 0.06,-0.340161 0.1302,-0.67788 0.20233,-1.015596 0.0385,-0.179852 0.12709,-0.412169 0.0845,-0.596423 -0.2333,-1.005821 -2.5243207,0.602289 -2.9096207,0.895369 -2.13839,1.627168 -3.62545,4.006669 -4.66874,6.450357 -1.12541,2.636249 -1.75132,5.464086 -1.97433,8.316195 -0.10983,1.407237 -0.14436,2.819037 -0.19795,4.229371 -0.0241,0.646764 0.16845,0.839326 0.81521,0.815214 1.41034,-0.0536 2.82213,-0.08812 4.22936,-0.197938 2.85196,-0.223192 5.6799507,-0.848937 8.3162007,-1.974336 2.4437,-1.043292 4.8232,-2.530358 6.45037,-4.668747 0.29324,-0.385125 1.90136,-2.676164 0.89568,-2.909292 z"
       style="fill:#f9f9f9;stroke-width:0.230393" />
  </g>
</svg>
