<?xml version="1.0" encoding="UTF-8" standalone="no"?>
<svg
   xmlns:dc="http://purl.org/dc/elements/1.1/"
   xmlns:cc="http://creativecommons.org/ns#"
   xmlns:rdf="http://www.w3.org/1999/02/22-rdf-syntax-ns#"
   xmlns:svg="http://www.w3.org/2000/svg"
   xmlns="http://www.w3.org/2000/svg"
   xmlns:xlink="http://www.w3.org/1999/xlink"
   xmlns:sodipodi="http://sodipodi.sourceforge.net/DTD/sodipodi-0.dtd"
   xmlns:inkscape="http://www.inkscape.org/namespaces/inkscape"
   width="32"
   height="32"
   viewBox="0 0 32 32"
   version="1.1"
   id="svg12"
   sodipodi:docname="favicon.svg"
   inkscape:version="1.0 (4035a4fb49, 2020-05-01)">
  <metadata
     id="metadata16">
    <rdf:RDF>
      <cc:Work
         rdf:about="">
        <dc:format>image/svg+xml</dc:format>
        <dc:type
           rdf:resource="http://purl.org/dc/dcmitype/StillImage" />
        <dc:title />
      </cc:Work>
    </rdf:RDF>
  </metadata>
  <sodipodi:namedview
     pagecolor="#ffffff"
     bordercolor="#666666"
     borderopacity="1"
     objecttolerance="10"
     gridtolerance="10"
     guidetolerance="10"
     inkscape:pageopacity="0"
     inkscape:pageshadow="2"
     inkscape:window-width="1920"
     inkscape:window-height="1017"
     id="namedview14"
     showgrid="false"
     inkscape:zoom="5.7421875"
     inkscape:cx="-34.280383"
     inkscape:cy="51.901199"
     inkscape:window-x="-8"
     inkscape:window-y="-8"
     inkscape:window-maximized="1"
     inkscape:current-layer="svg12"
     inkscape:document-rotation="0" />
  <defs
     id="defs8">
    <linearGradient
       id="a">
      <stop
         offset="0"
         stop-color="#000092"
         id="stop2" />
      <stop
         offset="1"
         stop-color="#ff00f3"
         id="stop4" />
    </linearGradient>
    <linearGradient
       id="b"
       x1="1.001"
       x2="29"
       y1="16"
       y2="16"
       gradientUnits="userSpaceOnUse"
       xlink:href="#a" />
  </defs>
  <path
     d="M 0.90429743,9.7918253 A 13.573691,13.573691 0 0 1 12.408709,0.98439096 13.573691,13.573691 0 0 1 15.469611,1.0535934"
     style="fill:none;fill-opacity:1;stroke:#402ac1;stroke-width:1.545;stroke-miterlimit:4;stroke-dasharray:none;stroke-opacity:1"
     id="path843" />
  <path
     id="path843-3"
     style="fill:none;fill-opacity:1;stroke:#402ac1;stroke-width:1.545;stroke-miterlimit:4;stroke-dasharray:none;stroke-opacity:1"
     d="m 30.993144,17.63682 a 13.573691,13.573691 0 0 1 -7.468526,12.415455 13.573691,13.573691 0 0 1 -2.872646,1.059159" />
  <g
     id="g857"
     style="fill:#402ac1;fill-opacity:1"
     transform="matrix(0.44912546,0,0,0.44912546,0.96093649,1.1729693)">
    <g
       transform="matrix(0.75461838,0.76365615,-0.7581364,0.75889,21.466349,-5.1283611)"
       id="g839">
      <path
         id="path4-61"
         d="m 32.954832,-29.341369 c 0,0 -17.442132,17.360673 -17.442092,44.492853 a 21.158676,21.158676 0 0 0 0.343026,3.676413 c -2.596931,2.213204 -6.2132584,5.969076 -6.2093874,9.732689 -1.5e-6,8.798571 5.8663614,17.599074 5.8663614,17.599074 l 8.794694,-11.724967 2.833371,2.833371 11.628063,3e-6 2.83337,-2.83337 8.794697,11.728837 c 0,0 5.866358,-8.800507 5.866353,-17.59907 10e-7,-3.763617 -3.614389,-7.517547 -6.209381,-9.732697 a 20.953119,20.953119 0 0 0 0.343028,-3.676407 c -4e-6,-27.132143 -17.442103,-44.496729 -17.442103,-44.496729 z M 29.078814,5.4653129 a 5.4815222,5.4815222 0 1 1 7.748129,-7.752089 5.4815222,5.4815222 0 0 1 -7.748129,7.752089 z"
         style="fill:#402ac1;fill-opacity:1;stroke-width:2.74076" />
    </g>
    <path
       style="fill:#402ac1;fill-opacity:1;stroke-width:0.223343"
       d="m 22.550628,55.563364 c -0.17778,-0.04174 -0.402614,0.04356 -0.576339,0.08055 -0.326637,0.06901 -0.653289,0.136733 -0.981791,0.193688 -0.634183,0.110023 -1.274834,0.163929 -1.915818,0.215617 -2.642612,0.21349 -5.303583,0.198451 -7.951491,0.3167 l -3.07e-4,-3.18e-4 c 0.131955,-2.66435 0.131601,-5.342428 0.358026,-8.001095 0.05483,-0.644829 0.112072,-1.289172 0.224852,-1.926845 0.05875,-0.330633 0.127332,-0.65886 0.197788,-0.987079 0.0376,-0.17479 0.123731,-0.400458 0.08299,-0.579779 -0.223169,-0.978898 -2.440534,0.578057 -2.813496,0.861912 -2.069923,1.575953 -3.5121758,3.885553 -4.5257685,6.258928 -1.0933757,2.560395 -1.7045304,5.308637 -1.9264281,8.081709 -0.1092869,1.36824 -0.1458254,2.741149 -0.2007771,4.112572 -0.02474,0.628922 0.1608829,0.816779 0.7858835,0.795299 1.3628922,-0.04784 2.7271428,-0.07711 4.0871572,-0.179624 2.756272,-0.208378 5.490286,-0.808321 8.04015,-1.894775 2.363623,-1.00719 4.666209,-2.446157 6.243304,-4.520843 0.284214,-0.373653 1.843245,-2.596853 0.872009,-2.826638 z"
       id="path4-6" />
  </g>
</svg>
